<svg width="107" height="107" viewBox="0 0 107 107" fill="none" xmlns="http://www.w3.org/2000/svg">
<path d="M53.327 106.654C82.7787 106.654 106.654 82.779 106.654 53.3272C106.654 23.8754 82.7787 0 53.327 0C23.8753 0 0 23.8754 0 53.3272C0 82.779 23.8753 106.654 53.327 106.654Z" fill="url(#paint0_radial_8026_580)"/>
<path d="M16.1145 62.7811C21.1122 62.3309 24.6876 56.6815 24.1003 50.1628C23.5131 43.6441 18.9855 38.7247 13.9879 39.1749C8.99029 39.6252 5.41502 45.2746 6.00227 51.7932C6.58952 58.3119 11.1169 63.2313 16.1145 62.7811Z" fill="#ACADB2"/>
<path d="M19.3221 81.7638C22.3157 80.1914 23.0566 75.7071 20.977 71.7477C18.8974 67.7884 14.7848 65.8534 11.7911 67.4258C8.79749 68.9982 8.05647 73.4826 10.1361 77.4419C12.2157 81.4012 16.3285 83.3362 19.3221 81.7638Z" fill="#ACADB2"/>
<path d="M28.1099 71.3256C29.8482 70.4126 30.2705 67.7936 29.0532 65.4759C27.8358 63.1583 25.4398 62.0196 23.7015 62.9326C21.9633 63.8456 21.5411 66.4646 22.7584 68.7823C23.9757 71.0999 26.3717 72.2386 28.1099 71.3256Z" fill="#ACADB2"/>
<path d="M95.3288 68.3713C100.297 67.6698 103.583 61.8475 102.668 55.3668C101.753 48.8861 96.9839 44.2011 92.0154 44.9026C87.0469 45.6041 83.7608 51.4264 84.6757 57.9071C85.5907 64.3878 90.3603 69.0728 95.3288 68.3713Z" fill="#ACADB2"/>
<path d="M96.1626 39.701C99.073 37.9791 99.5864 33.4627 97.3091 29.6134C95.0318 25.7641 90.8262 24.0395 87.9158 25.7613C85.0053 27.4832 84.4921 31.9995 86.7694 35.8488C89.0467 39.6981 93.2521 41.4228 96.1626 39.701Z" fill="#ACADB2"/>
<path d="M84.3917 45.1325C86.0816 44.133 86.3712 41.496 85.0384 39.2428C83.7056 36.9895 81.2552 35.9732 79.5653 36.9728C77.8753 37.9724 77.5858 40.6093 78.9186 42.8626C80.2514 45.1158 82.7018 46.1321 84.3917 45.1325Z" fill="#ACADB2"/>
<path d="M61.6222 47.9945C47.9942 36.934 42.6615 20.1459 49.7718 10.468C56.882 0.790059 73.4726 1.77759 87.1006 12.838C100.729 23.8985 106.061 40.6867 98.9511 50.3646C91.8408 60.0425 75.0527 58.8574 61.6222 47.9945Z" fill="url(#paint1_radial_8026_580)"/>
<path opacity="0.4" d="M6.32013 65.1777C8.0977 59.2524 17.183 61.82 26.6634 70.7079C36.1437 79.5958 42.4639 91.6438 40.6864 97.569C38.9088 103.494 29.8235 101.124 20.3431 92.0388C10.6652 83.1509 4.54256 71.1029 6.32013 65.1777Z" fill="url(#paint2_radial_8026_580)"/>
<defs>
<radialGradient id="paint0_radial_8026_580" cx="0" cy="0" r="1" gradientUnits="userSpaceOnUse" gradientTransform="translate(65.5932 19.9481) rotate(180) scale(101.239 101.239)">
<stop stop-color="#F8F8F8"/>
<stop offset="0.1559" stop-color="#EDE9F1"/>
<stop offset="1" stop-color="#9B9DA2"/>
</radialGradient>
<radialGradient id="paint1_radial_8026_580" cx="0" cy="0" r="1" gradientUnits="userSpaceOnUse" gradientTransform="translate(74.2761 30.3674) rotate(126.034) scale(21.6788 31.6252)">
<stop stop-color="white"/>
<stop offset="1" stop-color="white" stop-opacity="0"/>
</radialGradient>
<radialGradient id="paint2_radial_8026_580" cx="0" cy="0" r="1" gradientUnits="userSpaceOnUse" gradientTransform="translate(23.444 81.3149) rotate(-136.789) scale(23.5756 10.0135)">
<stop stop-color="white"/>
<stop offset="1" stop-color="white" stop-opacity="0"/>
</radialGradient>
</defs>
</svg>
