<svg width="182" height="130" viewBox="0 0 182 130" fill="none" xmlns="http://www.w3.org/2000/svg">
<path d="M144.05 50.0281C142.075 22.377 119.164 0.453613 90.9208 0.453613C62.6773 0.453613 39.5689 22.377 37.7913 50.0281C16.8555 51.0157 0.0673828 68.3964 0.0673828 89.7273C0.0673828 111.651 17.8431 129.426 39.7664 129.426H142.273C164.196 129.426 181.972 111.651 181.972 89.7273C181.774 68.3964 165.184 51.0157 144.05 50.0281Z" fill="url(#paint0_radial_12_2874)"/>
<path d="M90.921 54.9659C75.9105 42.9179 70.1828 24.3521 77.8856 13.6867C85.5884 3.02125 104.154 4.2063 118.967 16.2543C133.978 28.3023 139.705 46.868 132.003 57.5335C124.3 68.1989 105.932 67.0139 90.921 54.9659Z" fill="url(#paint1_radial_12_2874)"/>
<path opacity="0.4" d="M144.446 90.9123C132.595 81.4319 128.052 66.8163 134.175 58.521C140.298 50.2256 154.716 51.0157 166.566 60.6936C178.417 70.174 182.959 84.7895 176.837 93.0849C170.516 101.38 156.098 100.393 144.446 90.9123Z" fill="url(#paint2_radial_12_2874)"/>
<path opacity="0.2" d="M28.3111 92.0973C19.6207 78.4693 9.54788 71.9515 5.79523 77.4817C2.04259 83.012 5.99274 98.4176 14.6831 111.848C23.3734 125.476 33.4463 131.994 37.1989 126.464C40.9516 121.131 37.0014 105.725 28.3111 92.0973Z" fill="url(#paint3_radial_12_2874)"/>
<defs>
<radialGradient id="paint0_radial_12_2874" cx="0" cy="0" r="1" gradientUnits="userSpaceOnUse" gradientTransform="translate(113.815 27.5491) rotate(180) scale(138.763 101.367)">
<stop stop-color="white"/>
<stop offset="0.198" stop-color="#D5F3FF"/>
<stop offset="1" stop-color="#85BCF1"/>
</radialGradient>
<radialGradient id="paint1_radial_12_2874" cx="0" cy="0" r="1" gradientUnits="userSpaceOnUse" gradientTransform="translate(104.928 35.6361) rotate(126.034) scale(23.8824 34.8399)">
<stop stop-color="white"/>
<stop offset="1" stop-color="white" stop-opacity="0"/>
</radialGradient>
<radialGradient id="paint2_radial_12_2874" cx="0" cy="0" r="1" gradientUnits="userSpaceOnUse" gradientTransform="translate(155.405 75.649) rotate(126.034) scale(18.7694 27.381)">
<stop stop-color="white"/>
<stop offset="1" stop-color="white" stop-opacity="0"/>
</radialGradient>
<radialGradient id="paint3_radial_12_2874" cx="0" cy="0" r="1" gradientUnits="userSpaceOnUse" gradientTransform="translate(21.5096 102.101) rotate(-25.7093) scale(9.62091 28.0073)">
<stop stop-color="white"/>
<stop offset="1" stop-color="white" stop-opacity="0"/>
</radialGradient>
</defs>
</svg>
