<svg width="131" height="173" viewBox="0 0 131 173" fill="none" xmlns="http://www.w3.org/2000/svg">
<path d="M128.274 145.946L120.374 141.403L122.744 140.021C124.719 138.836 125.312 136.466 124.127 134.491C122.942 132.515 120.572 131.923 118.597 133.108L112.079 136.861L106.154 133.503C106.351 132.515 106.549 131.33 106.549 130.145C106.549 128.96 106.351 127.973 106.154 126.788L112.079 123.43L118.597 127.183C119.189 127.578 119.979 127.775 120.572 127.775C121.954 127.775 123.337 126.985 124.127 125.8C125.312 123.825 124.522 121.455 122.744 120.27L120.374 118.887L128.274 114.345C130.25 113.16 130.842 110.79 129.657 108.814C128.472 106.839 126.102 106.247 124.127 107.432L116.226 111.975V109.21C116.226 107.037 114.449 105.259 112.276 105.259C110.104 105.259 108.326 107.037 108.326 109.21V116.715L102.401 120.072C100.821 118.492 98.8458 117.307 96.6733 116.715V109.802L103.191 106.049C105.166 104.864 105.759 102.494 104.574 100.519C103.389 98.5441 101.018 97.9516 99.0433 99.1366L96.6733 100.519V91.4338C96.6733 89.2612 94.8957 87.4836 92.7231 87.4836C90.5505 87.4836 88.773 89.2612 88.773 91.4338V100.519L86.4028 99.1366C84.4278 97.9516 82.0577 98.7416 80.8727 100.519C79.6876 102.494 80.4776 104.864 82.2552 106.049L88.773 109.802V116.715C86.6004 117.307 84.6253 118.492 83.0452 120.072L77.12 116.715V109.21C77.12 107.037 75.3425 105.259 73.1699 105.259C70.9973 105.259 69.2197 107.037 69.2197 109.21V111.975L61.3194 107.432C59.3443 106.247 56.9742 107.037 55.7892 108.814C54.6041 110.79 55.3942 113.16 57.1718 114.345L65.0721 118.887L62.7019 120.27C60.7269 121.455 60.1344 123.825 61.3194 125.8C62.1095 127.183 63.492 127.775 64.8745 127.775C65.4671 127.775 66.2571 127.578 66.8496 127.183L73.3673 123.43L79.2926 126.788C79.095 127.775 78.8976 128.96 78.8976 130.145C78.8976 131.33 79.095 132.318 79.2926 133.503L73.3673 136.861L66.8496 133.108C64.8745 131.923 62.5045 132.713 61.3194 134.491C60.1344 136.466 60.9244 138.836 62.7019 140.021L65.0721 141.403L57.1718 145.946C55.1967 147.131 54.6041 149.501 55.7892 151.476C56.5792 152.859 57.9618 153.451 59.3443 153.451C59.9369 153.451 60.7269 153.254 61.3194 152.859L69.2197 148.316V151.081C69.2197 153.254 70.9973 155.031 73.1699 155.031C75.3425 155.031 77.12 153.254 77.12 151.081V143.576L83.0452 140.218C84.6253 141.798 86.6004 142.983 88.773 143.576V150.489L82.2552 154.241C80.2801 155.426 79.6876 157.797 80.8727 159.772C82.0577 161.747 84.4278 162.339 86.4028 161.154L88.773 159.772V168.857C88.773 171.03 90.5505 172.807 92.7231 172.807C94.8957 172.807 96.6733 171.03 96.6733 168.857V159.772L99.0433 161.154C99.6358 161.549 100.426 161.747 101.018 161.747C102.401 161.747 103.784 160.957 104.574 159.772C105.759 157.797 104.969 155.426 103.191 154.241L96.6733 150.489V143.576C98.8458 142.983 100.821 141.798 102.401 140.218L108.326 143.576V151.081C108.326 153.254 110.104 155.031 112.276 155.031C114.449 155.031 116.226 153.254 116.226 151.081V148.316L124.127 152.859C124.719 153.254 125.509 153.451 126.102 153.451C127.484 153.451 128.867 152.661 129.657 151.476C130.842 149.501 130.052 146.934 128.274 145.946ZM92.5256 136.071C89.168 136.071 86.4028 133.306 86.4028 129.948C86.4028 126.59 89.168 123.825 92.5256 123.825C95.8832 123.825 98.6483 126.59 98.6483 129.948C98.6483 133.306 95.8832 136.071 92.5256 136.071Z" fill="url(#paint0_radial_12_3152)"/>
<path d="M77.91 157.599C77.91 166.092 70.9972 172.807 62.7019 172.807H15.8927C7.39985 172.807 0.68457 165.894 0.68457 157.599V16.1832C0.68457 7.69037 7.59736 0.975098 15.8927 0.975098H62.7019C71.1947 0.975098 77.91 7.88788 77.91 16.1832V157.599Z" fill="url(#paint1_linear_12_3152)"/>
<path d="M31.6934 135.281C31.6934 139.428 35.051 142.786 39.1986 142.786C43.3463 142.786 46.7039 139.428 46.7039 135.281V30.2063C46.7039 26.0586 43.3463 22.701 39.1986 22.701C35.051 22.701 31.6934 26.0586 31.6934 30.2063V135.281Z" fill="#A3AAD2"/>
<path d="M31.6934 135.281C31.6934 139.428 35.051 142.786 39.1986 142.786C43.3463 142.786 46.7039 139.428 46.7039 135.281V115.727C46.7039 111.58 43.3463 108.222 39.1986 108.222C35.051 108.222 31.6934 111.58 31.6934 115.727V135.281Z" fill="url(#paint2_linear_12_3152)"/>
<path d="M39.1988 156.611C47.8161 156.611 54.8019 149.626 54.8019 141.008C54.8019 132.391 47.8161 125.405 39.1988 125.405C30.5814 125.405 23.5957 132.391 23.5957 141.008C23.5957 149.626 30.5814 156.611 39.1988 156.611Z" fill="url(#paint3_radial_12_3152)"/>
<path d="M64.0844 37.1191C64.0844 37.9091 63.4918 38.6991 62.5043 38.6991H55.3941C54.604 38.6991 53.814 38.1066 53.814 37.1191C53.814 36.329 54.4065 35.539 55.3941 35.539H62.5043C63.2943 35.539 64.0844 36.1315 64.0844 37.1191Z" fill="#A3AAD2"/>
<path d="M64.0844 59.0425C64.0844 59.8325 63.4918 60.6225 62.5043 60.6225H55.3941C54.604 60.6225 53.814 60.03 53.814 59.0425C53.814 58.2524 54.4065 57.4624 55.3941 57.4624H62.5043C63.2943 57.6599 64.0844 58.2524 64.0844 59.0425Z" fill="#A3AAD2"/>
<path d="M64.0844 81.1634C64.0844 81.9534 63.4918 82.7435 62.5043 82.7435H55.3941C54.604 82.7435 53.814 82.1509 53.814 81.1634C53.814 80.3733 54.4065 79.5833 55.3941 79.5833H62.5043C63.2943 79.7808 64.0844 80.3733 64.0844 81.1634Z" fill="#A3AAD2"/>
<path d="M64.0844 103.284C64.0844 104.074 63.4918 104.864 62.5043 104.864H55.3941C54.604 104.864 53.814 104.272 53.814 103.284C53.814 102.494 54.4065 101.704 55.3941 101.704H62.5043C63.2943 101.902 64.0844 102.494 64.0844 103.284Z" fill="#A3AAD2"/>
<path d="M64.0844 125.405C64.0844 126.195 63.4918 126.985 62.5043 126.985H55.3941C54.604 126.985 53.814 126.393 53.814 125.405C53.814 124.615 54.4065 123.825 55.3941 123.825H62.5043C63.2943 124.023 64.0844 124.615 64.0844 125.405Z" fill="#A3AAD2"/>
<defs>
<radialGradient id="paint0_radial_12_3152" cx="0" cy="0" r="1" gradientUnits="userSpaceOnUse" gradientTransform="translate(117.12 112.789) scale(73.2156 73.2159)">
<stop stop-color="#28CBE9"/>
<stop offset="1" stop-color="#0A4FBB"/>
</radialGradient>
<linearGradient id="paint1_linear_12_3152" x1="0.529329" y1="86.8587" x2="77.8668" y2="86.8587" gradientUnits="userSpaceOnUse">
<stop stop-color="#DBE1FF"/>
<stop offset="1" stop-color="#CBD1E9"/>
</linearGradient>
<linearGradient id="paint2_linear_12_3152" x1="39.1996" y1="104.883" x2="39.1996" y2="123.033" gradientUnits="userSpaceOnUse">
<stop stop-color="#28CBE9"/>
<stop offset="1" stop-color="#0A4FBB"/>
</linearGradient>
<radialGradient id="paint3_radial_12_3152" cx="0" cy="0" r="1" gradientUnits="userSpaceOnUse" gradientTransform="translate(33.8252 149.197) scale(22.5194 22.5195)">
<stop stop-color="#54F5FF"/>
<stop offset="0.1183" stop-color="#28CBE9"/>
<stop offset="1" stop-color="#0A4FBB"/>
</radialGradient>
</defs>
</svg>
