<svg width="241" height="131" viewBox="0 0 241 131" fill="none" xmlns="http://www.w3.org/2000/svg">
<path d="M92.745 31.6272C91.56 14.049 76.7469 0.0258789 58.7737 0.0258789C40.8005 0.0258789 26.185 14.049 24.8025 31.6272C11.372 32.2197 0.706543 43.2802 0.706543 56.9082C0.706543 70.9313 11.9644 82.1892 25.9875 82.1892H91.1649C105.188 82.1892 116.446 70.9313 116.446 56.9082C116.841 43.2802 106.176 32.2197 92.745 31.6272Z" fill="url(#paint0_radial_12_3058)"/>
<path d="M58.7736 34.7873C49.2932 27.0845 45.5406 15.234 50.4783 8.51872C55.416 1.80344 67.0689 2.39597 76.7468 10.2963C86.2271 17.9991 89.9798 29.8496 85.0421 36.5649C80.1044 43.2801 68.4515 42.4901 58.7736 34.7873Z" fill="url(#paint1_radial_12_3058)"/>
<path opacity="0.4" d="M92.9424 57.5007C85.4371 51.378 82.4744 42.0951 86.4246 36.7624C90.3747 31.4297 99.4601 32.0222 106.965 38.1449C114.471 44.2677 117.433 53.5506 113.483 58.8833C109.533 64.216 100.448 63.6235 92.9424 57.5007Z" fill="url(#paint2_radial_12_3058)"/>
<path opacity="0.2" d="M19.0747 58.4883C13.5445 49.7979 7.22424 45.6502 4.65664 49.2054C2.28655 52.7605 4.85414 62.4384 10.3843 71.1288C15.9146 79.8191 22.2348 83.9668 24.8024 80.4117C27.1725 76.8565 24.6049 66.9811 19.0747 58.4883Z" fill="url(#paint3_radial_12_3058)"/>
<path d="M216.582 31.6272C215.397 14.049 200.584 0.0258789 182.611 0.0258789C164.638 0.0258789 150.022 14.049 148.64 31.6272C135.209 32.2197 124.544 43.2802 124.544 56.9082C124.544 70.9313 135.802 82.1892 149.825 82.1892H215.002C229.025 82.1892 240.283 70.9313 240.283 56.9082C240.678 43.2802 230.013 32.2197 216.582 31.6272Z" fill="url(#paint4_radial_12_3058)"/>
<path d="M182.809 34.7873C173.328 27.0845 169.576 15.234 174.513 8.51872C179.451 1.80344 191.104 2.39597 200.782 10.2963C210.262 17.9991 214.015 29.8496 209.077 36.5649C203.942 43.2801 192.289 42.4901 182.809 34.7873Z" fill="url(#paint5_radial_12_3058)"/>
<path opacity="0.4" d="M216.78 57.5007C209.274 51.378 206.312 42.0951 210.262 36.7624C214.212 31.4297 223.297 32.0222 230.803 38.1449C238.308 44.2677 241.271 53.5506 237.32 58.8833C233.568 64.216 224.285 63.6235 216.78 57.5007Z" fill="url(#paint6_radial_12_3058)"/>
<path opacity="0.2" d="M142.912 58.4883C137.382 49.7979 131.062 45.6502 128.494 49.2054C126.124 52.7605 128.692 62.4384 134.222 71.1288C139.752 79.8191 146.072 83.9668 148.64 80.4117C151.01 76.8565 148.442 66.9811 142.912 58.4883Z" fill="url(#paint7_radial_12_3058)"/>
<path d="M161.675 69.5488C160.293 48.2179 142.517 31.4297 120.791 31.4297C99.0653 31.4297 81.2897 48.2179 79.9072 69.5488C63.7115 70.3388 50.8735 83.7693 50.8735 100.163C50.8735 116.951 64.5016 130.776 81.4872 130.776H160.293C177.081 130.776 190.906 117.148 190.906 100.163C190.709 83.7693 177.871 70.5363 161.675 69.5488Z" fill="url(#paint8_radial_12_3058)"/>
<path d="M120.791 73.4989C109.336 64.216 104.793 49.9954 110.718 41.7001C116.643 33.4048 130.864 34.3923 142.319 43.6752C153.775 52.9581 158.317 67.1786 152.392 75.474C146.467 83.7693 132.246 82.7818 120.791 73.4989Z" fill="url(#paint9_radial_12_3058)"/>
<path opacity="0.4" d="M161.873 100.952C152.788 93.6447 149.233 82.3868 153.973 76.0665C158.713 69.5487 169.773 70.3388 178.859 77.6466C187.944 84.9544 191.499 96.2123 186.759 102.533C182.019 109.05 170.958 108.26 161.873 100.952Z" fill="url(#paint10_radial_12_3058)"/>
<path opacity="0.2" d="M72.797 102.138C66.0817 91.6696 58.379 86.7319 55.4163 90.8796C52.4537 95.0273 55.6139 106.878 62.3291 117.346C69.0444 127.814 76.7471 132.751 79.7097 128.604C82.4748 124.258 79.3147 112.408 72.797 102.138Z" fill="url(#paint11_radial_12_3058)"/>
<defs>
<radialGradient id="paint0_radial_12_3058" cx="0" cy="0" r="1" gradientUnits="userSpaceOnUse" gradientTransform="translate(73.458 17.2958) rotate(180) scale(88.3396 64.5322)">
<stop stop-color="white"/>
<stop offset="0.198" stop-color="#B4ECFF"/>
<stop offset="1" stop-color="#69ACF1"/>
</radialGradient>
<radialGradient id="paint1_radial_12_3058" cx="0" cy="0" r="1" gradientUnits="userSpaceOnUse" gradientTransform="translate(67.8013 22.4454) rotate(126.034) scale(15.2041 22.1798)">
<stop stop-color="white"/>
<stop offset="1" stop-color="white" stop-opacity="0"/>
</radialGradient>
<radialGradient id="paint2_radial_12_3058" cx="0" cy="0" r="1" gradientUnits="userSpaceOnUse" gradientTransform="translate(99.9363 47.9199) rotate(126.034) scale(11.9495 17.4321)">
<stop stop-color="white"/>
<stop offset="1" stop-color="white" stop-opacity="0"/>
</radialGradient>
<radialGradient id="paint3_radial_12_3058" cx="0" cy="0" r="1" gradientUnits="userSpaceOnUse" gradientTransform="translate(14.695 64.749) rotate(-25.7092) scale(6.12486 17.83)">
<stop stop-color="white"/>
<stop offset="1" stop-color="white" stop-opacity="0"/>
</radialGradient>
<radialGradient id="paint4_radial_12_3058" cx="0" cy="0" r="1" gradientUnits="userSpaceOnUse" gradientTransform="translate(197.328 17.2958) rotate(180) scale(88.3393 64.5321)">
<stop stop-color="white"/>
<stop offset="0.198" stop-color="#B4ECFF"/>
<stop offset="1" stop-color="#69ACF1"/>
</radialGradient>
<radialGradient id="paint5_radial_12_3058" cx="0" cy="0" r="1" gradientUnits="userSpaceOnUse" gradientTransform="translate(191.672 22.445) rotate(126.034) scale(15.2038 22.1794)">
<stop stop-color="white"/>
<stop offset="1" stop-color="white" stop-opacity="0"/>
</radialGradient>
<radialGradient id="paint6_radial_12_3058" cx="0" cy="0" r="1" gradientUnits="userSpaceOnUse" gradientTransform="translate(223.807 47.9198) rotate(126.034) scale(11.9495 17.4321)">
<stop stop-color="white"/>
<stop offset="1" stop-color="white" stop-opacity="0"/>
</radialGradient>
<radialGradient id="paint7_radial_12_3058" cx="0" cy="0" r="1" gradientUnits="userSpaceOnUse" gradientTransform="translate(138.563 64.7468) rotate(-25.7093) scale(6.12485 17.83)">
<stop stop-color="white"/>
<stop offset="1" stop-color="white" stop-opacity="0"/>
</radialGradient>
<radialGradient id="paint8_radial_12_3058" cx="0" cy="0" r="1" gradientUnits="userSpaceOnUse" gradientTransform="translate(138.427 52.368) rotate(180) scale(106.69 77.9373)">
<stop stop-color="white"/>
<stop offset="0.198" stop-color="#D5F3FF"/>
<stop offset="1" stop-color="#85BCF1"/>
</radialGradient>
<radialGradient id="paint9_radial_12_3058" cx="0" cy="0" r="1" gradientUnits="userSpaceOnUse" gradientTransform="translate(131.594 58.5895) rotate(126.034) scale(18.362 26.7866)">
<stop stop-color="white"/>
<stop offset="1" stop-color="white" stop-opacity="0"/>
</radialGradient>
<radialGradient id="paint10_radial_12_3058" cx="0" cy="0" r="1" gradientUnits="userSpaceOnUse" gradientTransform="translate(170.408 89.3535) rotate(126.034) scale(14.4307 21.0516)">
<stop stop-color="white"/>
<stop offset="1" stop-color="white" stop-opacity="0"/>
</radialGradient>
<radialGradient id="paint11_radial_12_3058" cx="0" cy="0" r="1" gradientUnits="userSpaceOnUse" gradientTransform="translate(67.4578 109.681) rotate(-25.7093) scale(7.39718 21.5339)">
<stop stop-color="white"/>
<stop offset="1" stop-color="white" stop-opacity="0"/>
</radialGradient>
</defs>
</svg>
