<svg width="133" height="173" viewBox="0 0 133 173" fill="none" xmlns="http://www.w3.org/2000/svg">
<path d="M123.479 157.007L113.999 157.599L112.221 166.882L103.136 164.314L98.1984 172.412L90.4956 166.882L83.1878 172.807L77.8551 164.907L68.7698 168.067L66.5972 158.784L57.1168 158.587L58.1044 149.106L49.2165 145.749L53.3642 137.256L46.2539 130.935L52.9692 124.418L48.4265 116.122L57.1168 112.37L55.5368 102.889L65.2146 102.297L66.9922 92.8164L76.0775 95.5815L81.0152 87.2862L88.718 93.0139L96.0258 86.8912L101.359 94.989L110.246 91.8289L112.616 101.112H122.097L121.109 110.592L129.997 113.95L125.849 122.64L132.96 128.763L126.047 135.478L130.787 143.773L122.097 147.526L123.479 157.007Z" fill="url(#paint0_linear_12_3135)"/>
<path d="M89.5082 162.142C107.288 162.142 121.702 147.728 121.702 129.948C121.702 112.168 107.288 97.7541 89.5082 97.7541C71.7281 97.7541 57.3145 112.168 57.3145 129.948C57.3145 147.728 71.7281 162.142 89.5082 162.142Z" fill="url(#paint1_radial_12_3135)"/>
<path d="M94.4455 126.59C86.3477 119.875 82.99 109.802 87.3352 104.074C91.4829 98.1491 101.753 98.9392 109.851 105.457C117.949 112.172 121.306 122.245 116.961 127.973C112.814 133.898 102.741 133.306 94.4455 126.59Z" fill="url(#paint2_radial_12_3135)"/>
<path opacity="0.4" d="M61.0668 137.058C62.0543 133.503 67.5845 134.886 73.3122 140.416C79.04 145.749 82.7926 153.056 81.805 156.612C80.8175 160.167 75.2873 158.784 69.5596 153.254C63.8319 147.724 60.0792 140.613 61.0668 137.058Z" fill="url(#paint3_radial_12_3135)"/>
<path d="M77.2626 157.599C77.2626 166.092 70.3498 172.807 62.0544 172.807H15.2452C6.75236 172.807 0.0371094 165.894 0.0371094 157.599V16.1832C0.0371094 7.69037 6.94987 0.975098 15.2452 0.975098H62.0544C70.5473 0.975098 77.2626 7.88788 77.2626 16.1832V157.599Z" fill="url(#paint4_linear_12_3135)"/>
<path d="M31.0459 135.281C31.0459 139.428 34.4035 142.786 38.5512 142.786C42.6988 142.786 46.0565 139.428 46.0565 135.281V30.2063C46.0565 26.0586 42.6988 22.701 38.5512 22.701C34.4035 22.701 31.0459 26.0586 31.0459 30.2063V135.281Z" fill="#A3AAD2"/>
<path d="M31.0459 135.281C31.0459 139.428 34.4035 142.786 38.5512 142.786C42.6988 142.786 46.0565 139.428 46.0565 135.281V59.635C46.0565 55.4873 42.6988 52.1297 38.5512 52.1297C34.4035 52.1297 31.0459 55.4873 31.0459 59.635V135.281Z" fill="url(#paint5_linear_12_3135)"/>
<path d="M38.5508 156.611C47.1682 156.611 54.1539 149.626 54.1539 141.008C54.1539 132.391 47.1682 125.405 38.5508 125.405C29.9335 125.405 22.9478 132.391 22.9478 141.008C22.9478 149.626 29.9335 156.611 38.5508 156.611Z" fill="url(#paint6_radial_12_3135)"/>
<path d="M63.4369 37.1191C63.4369 37.9091 62.8444 38.6991 61.8569 38.6991H54.7466C53.9565 38.6991 53.1665 38.1066 53.1665 37.1191C53.1665 36.329 53.759 35.539 54.7466 35.539H61.8569C62.8444 35.539 63.4369 36.1315 63.4369 37.1191Z" fill="#A3AAD2"/>
<path d="M63.4369 59.0425C63.4369 59.8325 62.8444 60.6225 61.8569 60.6225H54.7466C53.9565 60.6225 53.1665 60.03 53.1665 59.0425C53.1665 58.2524 53.759 57.4624 54.7466 57.4624H61.8569C62.8444 57.6599 63.4369 58.2524 63.4369 59.0425Z" fill="#A3AAD2"/>
<path d="M63.4369 81.1634C63.4369 81.9534 62.8444 82.7435 61.8569 82.7435H54.7466C53.9565 82.7435 53.1665 82.1509 53.1665 81.1634C53.1665 80.3733 53.759 79.5833 54.7466 79.5833H61.8569C62.8444 79.7808 63.4369 80.3733 63.4369 81.1634Z" fill="#A3AAD2"/>
<path d="M63.4369 103.284C63.4369 104.074 62.8444 104.864 61.8569 104.864H54.7466C53.9565 104.864 53.1665 104.272 53.1665 103.284C53.1665 102.494 53.759 101.704 54.7466 101.704H61.8569C62.8444 101.902 63.4369 102.494 63.4369 103.284Z" fill="#A3AAD2"/>
<path d="M63.4369 125.405C63.4369 126.195 62.8444 126.985 61.8569 126.985H54.7466C53.9565 126.985 53.1665 126.393 53.1665 125.405C53.1665 124.615 53.759 123.825 54.7466 123.825H61.8569C62.8444 124.023 63.4369 124.615 63.4369 125.405Z" fill="#A3AAD2"/>
<defs>
<linearGradient id="paint0_linear_12_3135" x1="129.137" y1="85.7024" x2="52.8708" y2="170.927" gradientUnits="userSpaceOnUse">
<stop stop-color="#FFBA24"/>
<stop offset="1" stop-color="#FF5500"/>
</linearGradient>
<radialGradient id="paint1_radial_12_3135" cx="0" cy="0" r="1" gradientUnits="userSpaceOnUse" gradientTransform="translate(96.9226 109.764) rotate(180) scale(61.012 61.0122)">
<stop stop-color="#FFF4C3"/>
<stop offset="0.1559" stop-color="#FFE036"/>
<stop offset="1" stop-color="#FA761C"/>
</radialGradient>
<radialGradient id="paint2_radial_12_3135" cx="0" cy="0" r="1" gradientUnits="userSpaceOnUse" gradientTransform="translate(102.154 116.041) rotate(126.034) scale(13.0647 19.0589)">
<stop stop-color="white"/>
<stop offset="1" stop-color="white" stop-opacity="0"/>
</radialGradient>
<radialGradient id="paint3_radial_12_3135" cx="0" cy="0" r="1" gradientUnits="userSpaceOnUse" gradientTransform="translate(71.5215 146.746) rotate(-136.79) scale(14.2069 6.03424)">
<stop stop-color="white"/>
<stop offset="1" stop-color="white" stop-opacity="0"/>
</radialGradient>
<linearGradient id="paint4_linear_12_3135" x1="-0.0488064" y1="86.8587" x2="77.2896" y2="86.8587" gradientUnits="userSpaceOnUse">
<stop stop-color="#DBE1FF"/>
<stop offset="1" stop-color="#CBD1E9"/>
</linearGradient>
<linearGradient id="paint5_linear_12_3135" x1="38.6205" y1="53.6556" x2="38.6205" y2="99.8814" gradientUnits="userSpaceOnUse">
<stop stop-color="#E93C28"/>
<stop offset="1" stop-color="#BB160A"/>
</linearGradient>
<radialGradient id="paint6_radial_12_3135" cx="0" cy="0" r="1" gradientUnits="userSpaceOnUse" gradientTransform="translate(34.2651 150.083) scale(24.2458 24.2459)">
<stop stop-color="#FF909A"/>
<stop offset="0.1989" stop-color="#E93C28"/>
<stop offset="1" stop-color="#BB160A"/>
</radialGradient>
</defs>
</svg>
