<svg width="182" height="187" viewBox="0 0 182 187" fill="none" xmlns="http://www.w3.org/2000/svg">
<path d="M144.05 50.5256C142.075 22.8744 119.164 0.95105 90.9208 0.95105C62.6773 0.95105 39.5689 22.8744 37.7913 50.5256C16.8555 51.5131 0.0673828 68.8938 0.0673828 90.2247C0.0673828 112.148 17.8431 129.924 39.7664 129.924H142.273C164.196 129.924 181.972 112.148 181.972 90.2247C181.774 68.8938 165.184 51.5131 144.05 50.5256Z" fill="url(#paint0_radial_12_3086)"/>
<path d="M90.921 55.4633C75.9105 43.4153 70.1828 24.8496 77.8856 14.1841C85.5884 3.51868 104.154 4.70374 118.967 16.7517C133.978 28.7997 139.705 47.3655 132.003 58.0309C124.3 68.6963 105.932 67.5113 90.921 55.4633Z" fill="url(#paint1_radial_12_3086)"/>
<path opacity="0.4" d="M144.446 91.2122C132.595 81.7318 128.052 67.1162 134.175 58.8209C140.298 50.5256 154.716 51.3156 166.566 60.9935C178.417 70.4739 182.959 85.0895 176.837 93.3848C170.516 101.68 156.098 100.89 144.446 91.2122Z" fill="url(#paint2_radial_12_3086)"/>
<path opacity="0.2" d="M28.3111 92.5948C19.6207 78.9667 9.54788 72.449 5.79523 77.9792C2.04259 83.5094 5.99274 98.915 14.6831 112.346C23.3734 125.974 33.4463 132.491 37.1989 126.961C40.9516 121.628 37.0014 106.223 28.3111 92.5948Z" fill="url(#paint3_radial_12_3086)"/>
<path d="M46.4816 154.217C44.3091 158.168 39.3714 159.353 35.4212 157.18C31.4711 155.007 30.286 150.07 32.4586 146.12C34.6312 142.169 48.6542 134.467 48.6542 134.467C48.6542 134.467 48.6542 150.465 46.4816 154.217Z" fill="url(#paint4_radial_12_3086)"/>
<path d="M32.656 153.032C31.4709 149.675 32.0635 146.317 34.4336 145.33C36.6062 144.342 39.3713 146.317 40.7538 149.477C41.9389 152.835 41.1488 156.192 38.9762 157.18C36.8036 158.168 33.841 156.192 32.656 153.032Z" fill="url(#paint5_radial_12_3086)"/>
<path d="M80.4528 154.217C78.2802 158.168 73.3426 159.353 69.3924 157.18C65.4423 155.007 64.2572 150.07 66.4298 146.12C68.6024 142.169 82.6254 134.467 82.6254 134.467C82.6254 134.467 82.6254 150.465 80.4528 154.217Z" fill="url(#paint6_radial_12_3086)"/>
<path d="M66.6272 153.032C65.4421 149.675 66.0347 146.317 68.4048 145.33C70.5774 144.342 73.3425 146.317 74.725 149.477C75.9101 152.835 75.12 156.192 72.9474 157.18C70.7749 158.168 67.8122 156.192 66.6272 153.032Z" fill="url(#paint7_radial_12_3086)"/>
<path d="M114.424 154.217C112.251 158.168 107.314 159.353 103.364 157.18C99.4135 155.007 98.2284 150.07 100.401 146.12C102.574 142.169 116.597 134.467 116.597 134.467C116.597 134.467 116.597 150.465 114.424 154.217Z" fill="url(#paint8_radial_12_3086)"/>
<path d="M100.598 153.032C99.4133 149.675 100.006 146.317 102.376 145.33C104.549 144.342 107.314 146.317 108.696 149.477C109.881 152.835 109.091 156.192 106.919 157.18C104.549 158.168 101.783 156.192 100.598 153.032Z" fill="url(#paint9_radial_12_3086)"/>
<path d="M148.396 154.217C146.223 158.168 141.285 159.353 137.335 157.18C133.385 155.007 132.2 150.07 134.373 146.12C136.545 142.169 150.568 134.467 150.568 134.467C150.568 134.467 150.568 150.465 148.396 154.217Z" fill="url(#paint10_radial_12_3086)"/>
<path d="M134.57 153.032C133.385 149.675 133.978 146.317 136.348 145.33C138.52 144.342 141.285 146.317 142.668 149.477C143.853 152.835 143.063 156.192 140.89 157.18C138.52 158.168 135.755 156.192 134.57 153.032Z" fill="url(#paint11_radial_12_3086)"/>
<path d="M63.4675 182.856C61.2949 186.806 56.3572 187.991 52.4071 185.819C48.4569 183.646 47.2719 178.511 49.4445 174.758C51.617 170.808 65.6401 163.105 65.6401 163.105C65.6401 163.105 65.6401 178.906 63.4675 182.856Z" fill="url(#paint12_radial_12_3086)"/>
<path d="M49.6418 181.473C48.4568 178.116 49.0493 174.758 51.4194 173.771C53.592 172.783 56.3571 174.758 57.7396 177.918C58.9247 181.276 58.1347 184.634 55.9621 185.621C53.7895 186.609 50.8269 184.831 49.6418 181.473Z" fill="url(#paint13_radial_12_3086)"/>
<path d="M97.4387 182.856C95.2661 186.806 90.3284 187.991 86.3783 185.819C82.4281 183.646 81.2431 178.511 83.4157 174.758C85.5882 170.808 99.6113 163.105 99.6113 163.105C99.6113 163.105 99.6113 178.906 97.4387 182.856Z" fill="url(#paint14_radial_12_3086)"/>
<path d="M83.613 181.473C82.428 178.116 83.0205 174.758 85.3906 173.771C87.5632 172.783 90.3283 174.758 91.7109 177.918C92.8959 181.276 92.1058 184.634 89.9333 185.621C87.7607 186.609 84.7981 184.831 83.613 181.473Z" fill="url(#paint15_radial_12_3086)"/>
<path d="M131.41 182.856C129.237 186.806 124.3 187.991 120.349 185.819C116.399 183.646 115.214 178.511 117.387 174.758C119.559 170.808 133.582 163.105 133.582 163.105C133.582 163.105 133.582 178.906 131.41 182.856Z" fill="url(#paint16_radial_12_3086)"/>
<path d="M117.584 181.473C116.399 178.116 116.992 174.758 119.362 173.771C121.534 172.783 124.299 174.758 125.682 177.918C126.867 181.276 126.077 184.634 123.904 185.621C121.534 186.609 118.769 184.831 117.584 181.473Z" fill="url(#paint17_radial_12_3086)"/>
<defs>
<radialGradient id="paint0_radial_12_3086" cx="0" cy="0" r="1" gradientUnits="userSpaceOnUse" gradientTransform="translate(113.815 27.9808) rotate(180) scale(138.76 101.365)">
<stop stop-color="white"/>
<stop offset="0.198" stop-color="#D5F3FF"/>
<stop offset="1" stop-color="#85BCF1"/>
</radialGradient>
<radialGradient id="paint1_radial_12_3086" cx="0" cy="0" r="1" gradientUnits="userSpaceOnUse" gradientTransform="translate(104.927 36.0679) rotate(126.034) scale(23.8816 34.8386)">
<stop stop-color="white"/>
<stop offset="1" stop-color="white" stop-opacity="0"/>
</radialGradient>
<radialGradient id="paint2_radial_12_3086" cx="0" cy="0" r="1" gradientUnits="userSpaceOnUse" gradientTransform="translate(155.406 76.0811) rotate(126.034) scale(18.7691 27.3806)">
<stop stop-color="white"/>
<stop offset="1" stop-color="white" stop-opacity="0"/>
</radialGradient>
<radialGradient id="paint3_radial_12_3086" cx="0" cy="0" r="1" gradientUnits="userSpaceOnUse" gradientTransform="translate(21.5159 102.53) rotate(-25.7093) scale(9.62031 28.0056)">
<stop stop-color="white"/>
<stop offset="1" stop-color="white" stop-opacity="0"/>
</radialGradient>
<radialGradient id="paint4_radial_12_3086" cx="0" cy="0" r="1" gradientUnits="userSpaceOnUse" gradientTransform="translate(35.6218 152.455) rotate(30.0008) scale(19.5348 19.5349)">
<stop stop-color="#D0F2FF"/>
<stop offset="0.198" stop-color="#D5F3FF"/>
<stop offset="1" stop-color="#85BCF1"/>
</radialGradient>
<radialGradient id="paint5_radial_12_3086" cx="0" cy="0" r="1" gradientUnits="userSpaceOnUse" gradientTransform="translate(36.6534 151.182) rotate(156.037) scale(4.36498 6.36747)">
<stop stop-color="white"/>
<stop offset="1" stop-color="white" stop-opacity="0"/>
</radialGradient>
<radialGradient id="paint6_radial_12_3086" cx="0" cy="0" r="1" gradientUnits="userSpaceOnUse" gradientTransform="translate(69.5785 152.456) rotate(30.0008) scale(19.5348 19.5349)">
<stop stop-color="#D0F2FF"/>
<stop offset="0.198" stop-color="#D5F3FF"/>
<stop offset="1" stop-color="#85BCF1"/>
</radialGradient>
<radialGradient id="paint7_radial_12_3086" cx="0" cy="0" r="1" gradientUnits="userSpaceOnUse" gradientTransform="translate(70.6105 151.182) rotate(156.037) scale(4.36498 6.36747)">
<stop stop-color="white"/>
<stop offset="1" stop-color="white" stop-opacity="0"/>
</radialGradient>
<radialGradient id="paint8_radial_12_3086" cx="0" cy="0" r="1" gradientUnits="userSpaceOnUse" gradientTransform="translate(103.536 152.456) rotate(30.0008) scale(19.5356 19.5357)">
<stop stop-color="#D0F2FF"/>
<stop offset="0.198" stop-color="#D5F3FF"/>
<stop offset="1" stop-color="#85BCF1"/>
</radialGradient>
<radialGradient id="paint9_radial_12_3086" cx="0" cy="0" r="1" gradientUnits="userSpaceOnUse" gradientTransform="translate(104.568 151.182) rotate(156.037) scale(4.36497 6.36746)">
<stop stop-color="white"/>
<stop offset="1" stop-color="white" stop-opacity="0"/>
</radialGradient>
<radialGradient id="paint10_radial_12_3086" cx="0" cy="0" r="1" gradientUnits="userSpaceOnUse" gradientTransform="translate(137.493 152.456) rotate(30.0008) scale(19.5348 19.5349)">
<stop stop-color="#D0F2FF"/>
<stop offset="0.198" stop-color="#D5F3FF"/>
<stop offset="1" stop-color="#85BCF1"/>
</radialGradient>
<radialGradient id="paint11_radial_12_3086" cx="0" cy="0" r="1" gradientUnits="userSpaceOnUse" gradientTransform="translate(138.525 151.182) rotate(156.037) scale(4.36497 6.36746)">
<stop stop-color="white"/>
<stop offset="1" stop-color="white" stop-opacity="0"/>
</radialGradient>
<radialGradient id="paint12_radial_12_3086" cx="0" cy="0" r="1" gradientUnits="userSpaceOnUse" gradientTransform="translate(52.6008 180.986) rotate(30.0008) scale(19.5348 19.5349)">
<stop stop-color="#D0F2FF"/>
<stop offset="0.198" stop-color="#D5F3FF"/>
<stop offset="1" stop-color="#85BCF1"/>
</radialGradient>
<radialGradient id="paint13_radial_12_3086" cx="0" cy="0" r="1" gradientUnits="userSpaceOnUse" gradientTransform="translate(53.6318 179.713) rotate(156.037) scale(4.36497 6.36746)">
<stop stop-color="white"/>
<stop offset="1" stop-color="white" stop-opacity="0"/>
</radialGradient>
<radialGradient id="paint14_radial_12_3086" cx="0" cy="0" r="1" gradientUnits="userSpaceOnUse" gradientTransform="translate(86.558 180.986) rotate(30.0008) scale(19.5351 19.5351)">
<stop stop-color="#D0F2FF"/>
<stop offset="0.198" stop-color="#D5F3FF"/>
<stop offset="1" stop-color="#85BCF1"/>
</radialGradient>
<radialGradient id="paint15_radial_12_3086" cx="0" cy="0" r="1" gradientUnits="userSpaceOnUse" gradientTransform="translate(87.5898 179.713) rotate(156.037) scale(4.36526 6.36788)">
<stop stop-color="white"/>
<stop offset="1" stop-color="white" stop-opacity="0"/>
</radialGradient>
<radialGradient id="paint16_radial_12_3086" cx="0" cy="0" r="1" gradientUnits="userSpaceOnUse" gradientTransform="translate(120.515 180.987) rotate(30.0008) scale(19.5348 19.5349)">
<stop stop-color="#D0F2FF"/>
<stop offset="0.198" stop-color="#D5F3FF"/>
<stop offset="1" stop-color="#85BCF1"/>
</radialGradient>
<radialGradient id="paint17_radial_12_3086" cx="0" cy="0" r="1" gradientUnits="userSpaceOnUse" gradientTransform="translate(121.546 179.713) rotate(156.037) scale(4.36526 6.36788)">
<stop stop-color="white"/>
<stop offset="1" stop-color="white" stop-opacity="0"/>
</radialGradient>
</defs>
</svg>
