<svg width="183" height="187" viewBox="0 0 183 187" fill="none" xmlns="http://www.w3.org/2000/svg">
<path d="M104.369 140.194H102.591H95.6784L109.899 112.543C110.491 111.358 111.084 109.975 111.282 108.593C113.059 100.1 107.726 91.6072 99.036 89.8297C90.5432 88.0521 82.0504 93.3848 80.2728 102.075L70.7925 146.514L70.595 147.897C70.3975 148.49 70.3975 149.28 70.3975 149.872C70.3975 155.205 74.7427 159.55 80.0754 159.55H90.5432L84.8155 183.251C84.618 184.041 85.013 185.029 85.6056 185.621C86.5931 186.411 87.9756 186.214 88.7656 185.226L111.282 154.02C112.269 152.637 112.862 150.86 112.862 148.885C112.862 143.947 109.109 140.194 104.369 140.194Z" fill="url(#paint0_linear_12_3115)"/>
<path d="M144.858 50.5256C142.883 22.8744 119.775 0.95105 91.7284 0.95105C63.4849 0.95105 40.3766 22.8744 38.599 50.5256C17.6632 51.5131 0.875 68.8938 0.875 90.2247C0.875 112.148 18.6507 129.924 40.5741 129.924H143.08C165.004 129.924 182.779 112.148 182.779 90.2247C182.582 68.8938 165.794 51.5131 144.858 50.5256Z" fill="url(#paint1_radial_12_3115)"/>
<path opacity="0.6" d="M95.2834 55.4633C80.2729 43.4153 74.5451 24.8496 82.2479 14.1841C89.9506 3.51868 108.516 4.70374 123.329 16.7517C138.34 28.7997 144.068 47.3655 136.365 58.0309C128.662 68.6963 110.294 67.5113 95.2834 55.4633Z" fill="url(#paint2_radial_12_3115)"/>
<path opacity="0.4" d="M145.055 91.2122C133.205 81.7318 128.662 67.1162 134.785 58.8209C140.908 50.5256 155.326 51.3156 167.176 60.9935C179.027 70.4739 183.569 85.0895 177.447 93.3848C171.324 101.68 156.906 100.89 145.055 91.2122Z" fill="url(#paint3_radial_12_3115)"/>
<path opacity="0.2" d="M29.1188 92.5948C20.4284 78.9667 10.3555 72.449 6.60285 77.9792C2.85021 83.5094 6.80036 98.915 15.4907 112.346C24.181 125.974 34.254 132.491 38.0066 126.961C41.7592 121.628 37.8091 106.223 29.1188 92.5948Z" fill="url(#paint4_radial_12_3115)"/>
<path d="M45.907 155.797C43.7344 159.747 38.7967 160.933 34.8465 158.76C30.8964 156.587 29.7113 151.65 31.8839 147.7C34.0565 143.749 48.0795 136.047 48.0795 136.047C48.0795 136.047 48.0796 151.847 45.907 155.797Z" fill="url(#paint5_radial_12_3115)"/>
<path d="M32.0813 154.415C30.8963 151.057 31.4887 147.7 33.8588 146.712C36.0314 145.724 38.7965 147.7 40.1791 150.86C41.3641 154.217 40.574 157.575 38.4015 158.562C36.2289 159.55 33.2664 157.772 32.0813 154.415Z" fill="url(#paint6_radial_12_3115)"/>
<path d="M58.9421 179.498C56.7695 183.449 51.8318 184.634 47.8817 182.461C43.9315 180.288 42.7465 175.351 44.9191 171.401C47.0917 167.45 61.1146 159.748 61.1146 159.748C61.1146 159.748 61.3121 175.548 58.9421 179.498Z" fill="url(#paint7_radial_12_3115)"/>
<path d="M45.1164 178.116C43.9314 174.758 44.524 171.401 46.8941 170.413C49.0666 169.425 51.8316 171.401 53.2142 174.561C54.3992 177.918 53.6093 181.276 51.4367 182.264C49.2641 183.251 46.499 181.473 45.1164 178.116Z" fill="url(#paint8_radial_12_3115)"/>
<path d="M150.586 155.797C148.413 159.747 143.475 160.933 139.525 158.76C135.575 156.587 134.39 151.65 136.563 147.7C138.735 143.749 152.758 136.047 152.758 136.047C152.758 136.047 152.956 151.847 150.586 155.797Z" fill="url(#paint9_radial_12_3115)"/>
<path d="M136.76 154.415C135.575 151.057 136.167 147.7 138.538 146.712C140.71 145.724 143.475 147.7 144.858 150.86C146.043 154.217 145.253 157.575 143.08 158.562C140.908 159.55 138.143 157.772 136.76 154.415Z" fill="url(#paint10_radial_12_3115)"/>
<path d="M128.07 179.498C125.897 183.449 120.96 184.634 117.01 182.461C113.059 180.288 111.874 175.351 114.047 171.401C116.22 167.45 130.243 159.748 130.243 159.748C130.243 159.748 130.44 175.548 128.07 179.498Z" fill="url(#paint11_radial_12_3115)"/>
<path d="M114.244 178.116C113.059 174.758 113.652 171.401 116.022 170.413C118.195 169.425 120.96 171.401 122.342 174.561C123.527 177.918 122.737 181.276 120.565 182.264C118.392 183.251 115.627 181.473 114.244 178.116Z" fill="url(#paint12_radial_12_3115)"/>
<defs>
<linearGradient id="paint0_linear_12_3115" x1="78.0418" y1="184.379" x2="100.803" y2="112.705" gradientUnits="userSpaceOnUse">
<stop offset="0.1559" stop-color="#FFE036"/>
<stop offset="1" stop-color="#FA761C"/>
</linearGradient>
<radialGradient id="paint1_radial_12_3115" cx="0" cy="0" r="1" gradientUnits="userSpaceOnUse" gradientTransform="translate(114.558 27.9808) rotate(180) scale(138.761 101.365)">
<stop stop-color="#B6CCD2"/>
<stop offset="0.198" stop-color="#97B6BE"/>
<stop offset="1" stop-color="#5D87B4"/>
</radialGradient>
<radialGradient id="paint2_radial_12_3115" cx="0" cy="0" r="1" gradientUnits="userSpaceOnUse" gradientTransform="translate(109.404 36.0688) rotate(126.034) scale(23.8821 34.8395)">
<stop stop-color="white"/>
<stop offset="1" stop-color="white" stop-opacity="0"/>
</radialGradient>
<radialGradient id="paint3_radial_12_3115" cx="0" cy="0" r="1" gradientUnits="userSpaceOnUse" gradientTransform="translate(156.149 76.0818) rotate(126.034) scale(18.7683 27.3793)">
<stop stop-color="white"/>
<stop offset="1" stop-color="white" stop-opacity="0"/>
</radialGradient>
<radialGradient id="paint4_radial_12_3115" cx="0" cy="0" r="1" gradientUnits="userSpaceOnUse" gradientTransform="translate(22.2445 102.516) rotate(-25.7092) scale(9.62033 28.0056)">
<stop stop-color="white"/>
<stop offset="1" stop-color="white" stop-opacity="0"/>
</radialGradient>
<radialGradient id="paint5_radial_12_3115" cx="0" cy="0" r="1" gradientUnits="userSpaceOnUse" gradientTransform="translate(35.0616 153.886) rotate(30.0008) scale(19.5357 19.5357)">
<stop stop-color="#D0F2FF"/>
<stop offset="0.198" stop-color="#D5F3FF"/>
<stop offset="1" stop-color="#85BCF1"/>
</radialGradient>
<radialGradient id="paint6_radial_12_3115" cx="0" cy="0" r="1" gradientUnits="userSpaceOnUse" gradientTransform="translate(36.0942 152.613) rotate(156.037) scale(4.36468 6.36705)">
<stop stop-color="white"/>
<stop offset="1" stop-color="white" stop-opacity="0"/>
</radialGradient>
<radialGradient id="paint7_radial_12_3115" cx="0" cy="0" r="1" gradientUnits="userSpaceOnUse" gradientTransform="translate(48.1522 177.677) rotate(30.0009) scale(19.5375 19.5376)">
<stop stop-color="#D0F2FF"/>
<stop offset="0.198" stop-color="#D5F3FF"/>
<stop offset="1" stop-color="#85BCF1"/>
</radialGradient>
<radialGradient id="paint8_radial_12_3115" cx="0" cy="0" r="1" gradientUnits="userSpaceOnUse" gradientTransform="translate(49.1847 176.404) rotate(156.037) scale(4.36496 6.36746)">
<stop stop-color="white"/>
<stop offset="1" stop-color="white" stop-opacity="0"/>
</radialGradient>
<radialGradient id="paint9_radial_12_3115" cx="0" cy="0" r="1" gradientUnits="userSpaceOnUse" gradientTransform="translate(139.786 153.886) rotate(30.0008) scale(19.5341 19.5341)">
<stop stop-color="#D0F2FF"/>
<stop offset="0.198" stop-color="#D5F3FF"/>
<stop offset="1" stop-color="#85BCF1"/>
</radialGradient>
<radialGradient id="paint10_radial_12_3115" cx="0" cy="0" r="1" gradientUnits="userSpaceOnUse" gradientTransform="translate(140.817 152.613) rotate(156.037) scale(4.36468 6.36705)">
<stop stop-color="white"/>
<stop offset="1" stop-color="white" stop-opacity="0"/>
</radialGradient>
<radialGradient id="paint11_radial_12_3115" cx="0" cy="0" r="1" gradientUnits="userSpaceOnUse" gradientTransform="translate(117.235 177.676) rotate(30.0009) scale(19.5356 19.5356)">
<stop stop-color="#D0F2FF"/>
<stop offset="0.198" stop-color="#D5F3FF"/>
<stop offset="1" stop-color="#85BCF1"/>
</radialGradient>
<radialGradient id="paint12_radial_12_3115" cx="0" cy="0" r="1" gradientUnits="userSpaceOnUse" gradientTransform="translate(118.267 176.403) rotate(156.037) scale(4.36524 6.36787)">
<stop stop-color="white"/>
<stop offset="1" stop-color="white" stop-opacity="0"/>
</radialGradient>
</defs>
</svg>
