<svg width="211" height="186" viewBox="0 0 211 186" fill="none" xmlns="http://www.w3.org/2000/svg">
<path d="M197.112 103.297L183.089 104.284L180.324 118.11L166.894 114.16L159.586 126.208L148.328 117.912L137.465 126.8L129.565 115.147L116.332 119.69L112.974 106.062L98.9512 105.864L100.531 91.8413L87.2983 86.9036L93.6185 74.263L82.9531 65.1777L93.026 55.3023L86.1132 43.0568L99.1487 37.329L96.7786 23.5035L110.802 22.7134L113.567 8.88786L126.997 12.6405L134.305 0.59253L145.563 8.88786L156.426 0L164.326 11.8505L177.559 7.1103L180.917 20.7383L194.94 20.9359L193.36 34.9589L206.593 40.0941L200.273 52.5372L210.938 61.82L200.865 71.4979L207.778 83.7434L194.742 89.4712L197.112 103.297Z" fill="url(#paint0_linear_12_3032)"/>
<path d="M146.946 110.802C173.125 110.802 194.348 89.5795 194.348 63.4001C194.348 37.2207 173.125 15.9982 146.946 15.9982C120.766 15.9982 99.5439 37.2207 99.5439 63.4001C99.5439 89.5795 120.766 110.802 146.946 110.802Z" fill="url(#paint1_radial_12_3032)"/>
<path d="M154.254 58.6599C142.206 48.7845 137.465 33.9714 143.786 25.281C150.106 16.5907 164.919 17.5782 176.967 27.4536C189.015 37.329 193.755 52.1421 187.435 60.8325C181.115 69.3253 166.302 68.3378 154.254 58.6599Z" fill="url(#paint2_radial_12_3032)"/>
<path opacity="0.4" d="M105.074 73.868C106.654 68.5353 114.752 70.7079 123.245 78.8057C131.738 86.7061 137.268 97.3715 135.688 102.704C134.108 108.037 126.01 105.864 117.517 97.7665C109.024 89.8662 103.494 79.2008 105.074 73.868Z" fill="url(#paint3_radial_12_3032)"/>
<path d="M144.18 77.8182C142.205 50.1671 119.295 28.2437 91.0509 28.2437C62.8074 28.2437 39.699 50.1671 37.9214 77.8182C16.7881 78.8057 0 96.1865 0 117.517C0 139.441 17.7757 157.216 39.699 157.216H142.205C164.129 157.216 181.904 139.441 181.904 117.517C181.904 96.1865 165.116 78.8057 144.18 77.8182Z" fill="url(#paint4_radial_12_3032)"/>
<path d="M144.18 77.8182C142.205 50.1671 119.295 28.2437 91.0509 28.2437C62.8074 28.2437 39.699 50.1671 37.9214 77.8182C16.7881 78.8057 0 96.1865 0 117.517C0 139.441 17.7757 157.216 39.699 157.216H142.205C164.129 157.216 181.904 139.441 181.904 117.517C181.904 96.1865 165.116 78.8057 144.18 77.8182Z" fill="url(#paint5_radial_12_3032)"/>
<path d="M91.0509 82.7559C76.0404 70.7079 70.3127 52.1421 78.0155 41.4767C85.7182 30.8112 104.284 31.9963 119.097 44.0443C134.108 56.0923 139.835 74.658 132.133 85.3235C124.43 96.1864 105.864 95.0014 91.0509 82.7559Z" fill="url(#paint6_radial_12_3032)"/>
<path opacity="0.4" d="M144.378 118.702C132.528 109.222 127.985 94.6063 134.108 86.311C140.23 78.0157 154.649 78.8057 166.499 88.4836C178.349 97.964 182.892 112.58 176.769 120.875C170.647 129.17 156.229 128.183 144.378 118.702Z" fill="url(#paint7_radial_12_3032)"/>
<path opacity="0.2" d="M28.441 119.887C19.7506 106.259 9.67776 99.7416 5.92512 105.272C2.17247 110.802 6.12262 126.208 14.813 139.638C23.5033 153.266 33.5762 159.784 37.3288 154.254C41.0814 148.921 37.1313 133.515 28.441 119.887Z" fill="url(#paint8_radial_12_3032)"/>
<path d="M46.6115 181.707C44.439 185.658 39.5013 186.843 35.5511 184.67C31.601 182.498 30.4159 177.56 32.5885 173.61C34.7611 169.659 48.7841 161.957 48.7841 161.957C48.7841 161.957 48.7841 177.757 46.6115 181.707Z" fill="url(#paint9_radial_12_3032)"/>
<path d="M32.7859 180.325C31.6008 176.967 32.1934 173.61 34.5634 172.622C36.736 171.635 39.5011 173.61 40.8837 176.77C42.0687 180.127 41.2787 183.485 39.1061 184.473C36.736 185.46 33.9709 183.683 32.7859 180.325Z" fill="url(#paint10_radial_12_3032)"/>
<path d="M80.5827 181.707C78.4101 185.658 73.4725 186.843 69.5223 184.67C65.5722 182.498 64.3871 177.56 66.5597 173.61C68.7323 169.659 82.7553 161.957 82.7553 161.957C82.7553 161.957 82.7553 177.757 80.5827 181.707Z" fill="url(#paint11_radial_12_3032)"/>
<path d="M66.7571 180.325C65.572 176.967 66.1646 173.61 68.5346 172.622C70.7072 171.635 73.4723 173.61 74.8549 176.77C76.0399 180.127 75.2499 183.485 73.0773 184.473C70.7072 185.46 67.9421 183.683 66.7571 180.325Z" fill="url(#paint12_radial_12_3032)"/>
<path d="M114.554 181.707C112.381 185.658 107.444 186.843 103.493 184.67C99.5433 182.498 98.3583 177.56 100.531 173.61C102.703 169.659 116.726 161.957 116.726 161.957C116.726 161.957 116.726 177.757 114.554 181.707Z" fill="url(#paint13_radial_12_3032)"/>
<path d="M100.728 180.325C99.5432 176.967 100.136 173.61 102.506 172.622C104.678 171.635 107.444 173.61 108.826 176.77C110.011 180.127 109.221 183.485 107.049 184.473C104.678 185.46 101.913 183.683 100.728 180.325Z" fill="url(#paint14_radial_12_3032)"/>
<path d="M148.526 181.707C146.353 185.658 141.415 186.843 137.465 184.67C133.515 182.498 132.33 177.56 134.503 173.61C136.675 169.659 150.698 161.957 150.698 161.957C150.698 161.957 150.698 177.757 148.526 181.707Z" fill="url(#paint15_radial_12_3032)"/>
<path d="M134.7 180.325C133.515 176.967 134.107 173.61 136.478 172.622C138.65 171.635 141.415 173.61 142.798 176.77C143.983 180.127 143.193 183.485 141.02 184.473C138.65 185.46 135.885 183.683 134.7 180.325Z" fill="url(#paint16_radial_12_3032)"/>
<defs>
<linearGradient id="paint0_linear_12_3032" x1="205.346" y1="-1.80523" x2="92.7687" y2="123.996" gradientUnits="userSpaceOnUse">
<stop stop-color="#FFBA24"/>
<stop offset="1" stop-color="#FF5500"/>
</linearGradient>
<radialGradient id="paint1_radial_12_3032" cx="0" cy="0" r="1" gradientUnits="userSpaceOnUse" gradientTransform="translate(157.795 33.7119) rotate(180) scale(90.0622 90.0625)">
<stop stop-color="#FFF4C3"/>
<stop offset="0.1559" stop-color="#FFE036"/>
<stop offset="1" stop-color="#FA761C"/>
</radialGradient>
<radialGradient id="paint2_radial_12_3032" cx="0" cy="0" r="1" gradientUnits="userSpaceOnUse" gradientTransform="translate(165.518 42.9802) rotate(126.034) scale(19.285 28.1331)">
<stop stop-color="white"/>
<stop offset="1" stop-color="white" stop-opacity="0"/>
</radialGradient>
<radialGradient id="paint3_radial_12_3032" cx="0" cy="0" r="1" gradientUnits="userSpaceOnUse" gradientTransform="translate(120.299 88.3016) rotate(-136.789) scale(20.9713 8.90733)">
<stop stop-color="white"/>
<stop offset="1" stop-color="white" stop-opacity="0"/>
</radialGradient>
<radialGradient id="paint4_radial_12_3032" cx="0" cy="0" r="1" gradientUnits="userSpaceOnUse" gradientTransform="translate(113.901 55.3641) rotate(180) scale(138.763 101.367)">
<stop stop-color="white"/>
<stop offset="0.198" stop-color="#D5F3FF"/>
<stop offset="1" stop-color="#85BCF1"/>
</radialGradient>
<radialGradient id="paint5_radial_12_3032" cx="0" cy="0" r="1" gradientUnits="userSpaceOnUse" gradientTransform="translate(131.769 63.2589) scale(121.869 121.869)">
<stop stop-color="#FFE036"/>
<stop offset="0.00517127" stop-color="#FFDF36" stop-opacity="0.9933"/>
<stop offset="0.1623" stop-color="#FDB92C" stop-opacity="0.789"/>
<stop offset="0.319" stop-color="#FC9C25" stop-opacity="0.5851"/>
<stop offset="0.4735" stop-color="#FB8720" stop-opacity="0.3841"/>
<stop offset="0.6247" stop-color="#FA7A1D" stop-opacity="0.1875"/>
<stop offset="0.7688" stop-color="#FA761C" stop-opacity="0"/>
</radialGradient>
<radialGradient id="paint6_radial_12_3032" cx="0" cy="0" r="1" gradientUnits="userSpaceOnUse" gradientTransform="translate(105.014 63.4558) rotate(126.034) scale(23.8827 34.8403)">
<stop stop-color="white"/>
<stop offset="1" stop-color="white" stop-opacity="0"/>
</radialGradient>
<radialGradient id="paint7_radial_12_3032" cx="0" cy="0" r="1" gradientUnits="userSpaceOnUse" gradientTransform="translate(155.493 103.467) rotate(126.034) scale(18.7691 27.3806)">
<stop stop-color="white"/>
<stop offset="1" stop-color="white" stop-opacity="0"/>
</radialGradient>
<radialGradient id="paint8_radial_12_3032" cx="0" cy="0" r="1" gradientUnits="userSpaceOnUse" gradientTransform="translate(21.6157 129.917) rotate(-25.7093) scale(9.62051 28.0062)">
<stop stop-color="white"/>
<stop offset="1" stop-color="white" stop-opacity="0"/>
</radialGradient>
<radialGradient id="paint9_radial_12_3032" cx="0" cy="0" r="1" gradientUnits="userSpaceOnUse" gradientTransform="translate(35.7079 179.841) rotate(30.0008) scale(19.5349 19.5349)">
<stop stop-color="#D0F2FF"/>
<stop offset="0.198" stop-color="#D5F3FF"/>
<stop offset="1" stop-color="#85BCF1"/>
</radialGradient>
<radialGradient id="paint10_radial_12_3032" cx="0" cy="0" r="1" gradientUnits="userSpaceOnUse" gradientTransform="translate(36.7391 178.57) rotate(156.037) scale(4.36554 6.36829)">
<stop stop-color="white"/>
<stop offset="1" stop-color="white" stop-opacity="0"/>
</radialGradient>
<radialGradient id="paint11_radial_12_3032" cx="0" cy="0" r="1" gradientUnits="userSpaceOnUse" gradientTransform="translate(69.6646 179.841) rotate(30.0008) scale(19.5356 19.5357)">
<stop stop-color="#D0F2FF"/>
<stop offset="0.198" stop-color="#D5F3FF"/>
<stop offset="1" stop-color="#85BCF1"/>
</radialGradient>
<radialGradient id="paint12_radial_12_3032" cx="0" cy="0" r="1" gradientUnits="userSpaceOnUse" gradientTransform="translate(70.6954 178.57) rotate(156.037) scale(4.36582 6.3687)">
<stop stop-color="white"/>
<stop offset="1" stop-color="white" stop-opacity="0"/>
</radialGradient>
<radialGradient id="paint13_radial_12_3032" cx="0" cy="0" r="1" gradientUnits="userSpaceOnUse" gradientTransform="translate(103.622 179.841) rotate(30.0008) scale(19.5348 19.5349)">
<stop stop-color="#D0F2FF"/>
<stop offset="0.198" stop-color="#D5F3FF"/>
<stop offset="1" stop-color="#85BCF1"/>
</radialGradient>
<radialGradient id="paint14_radial_12_3032" cx="0" cy="0" r="1" gradientUnits="userSpaceOnUse" gradientTransform="translate(104.653 178.57) rotate(156.037) scale(4.36582 6.3687)">
<stop stop-color="white"/>
<stop offset="1" stop-color="white" stop-opacity="0"/>
</radialGradient>
<radialGradient id="paint15_radial_12_3032" cx="0" cy="0" r="1" gradientUnits="userSpaceOnUse" gradientTransform="translate(137.58 179.841) rotate(30.0008) scale(19.5349 19.5349)">
<stop stop-color="#D0F2FF"/>
<stop offset="0.198" stop-color="#D5F3FF"/>
<stop offset="1" stop-color="#85BCF1"/>
</radialGradient>
<radialGradient id="paint16_radial_12_3032" cx="0" cy="0" r="1" gradientUnits="userSpaceOnUse" gradientTransform="translate(138.611 178.57) rotate(156.037) scale(4.36582 6.3687)">
<stop stop-color="white"/>
<stop offset="1" stop-color="white" stop-opacity="0"/>
</radialGradient>
</defs>
</svg>
