<svg width="128" height="146" viewBox="0 0 128 146" fill="none" xmlns="http://www.w3.org/2000/svg">
<path d="M124.098 99.9497L110.865 92.2469L115.013 89.8768C118.371 87.9017 119.358 83.7541 117.581 80.5939C115.606 77.4338 111.458 76.2487 108.298 78.0263L97.4349 84.3466L87.362 78.6188C87.7571 76.8413 87.9546 74.8661 87.9546 73.0886C87.9546 71.1135 87.7571 69.3359 87.362 67.5584L97.4349 61.8307L108.298 68.1509C109.285 68.7434 110.47 69.1384 111.656 69.1384C114.026 69.1384 116.396 67.9534 117.581 65.7808C119.556 62.6207 118.371 58.2755 115.013 56.4979L110.865 54.1278L124.098 46.425C127.259 44.4499 128.444 40.3023 126.666 37.1421C124.691 33.7845 120.543 32.797 117.383 34.5745L104.15 42.2773V37.5372C104.15 33.7845 101.188 30.8219 97.4349 30.8219C93.6823 30.8219 90.7197 33.7845 90.7197 37.5372V50.1777L80.6468 55.9054C77.8817 53.3378 74.5241 51.3627 70.9689 50.1777V38.5247L81.8319 32.2044C85.1895 30.2294 86.177 26.0817 84.3994 22.9215C82.4244 19.5639 78.2767 18.5764 75.1166 20.354L70.9689 22.724V7.31841C70.9689 3.56576 68.0063 0.603149 64.2537 0.603149C60.5011 0.603149 57.5384 3.56576 57.5384 7.31841V22.724L53.3908 20.354C50.2307 18.3789 45.8855 19.5639 44.1079 22.9215C42.1328 26.0817 43.3179 30.4269 46.6755 32.2044L57.5384 38.5247V50.1777C53.7858 51.3627 50.6256 53.1403 47.8605 55.9054L37.7876 49.9802V37.3396C37.7876 33.587 34.825 30.6244 31.0724 30.6244C27.3198 30.6244 24.3572 33.587 24.3572 37.3396V42.0798L11.1241 34.377C7.76651 32.4019 3.61889 33.587 1.84132 36.9446C-0.133754 40.1048 1.05127 44.4499 4.40889 46.2275L17.6419 53.9303L13.4943 56.3004C10.3341 58.2755 9.14911 62.4232 10.9267 65.5833C12.1117 67.7559 14.4818 68.941 16.8519 68.941C18.0369 68.941 19.222 68.7434 20.2095 67.9534L31.0724 61.6331L41.1453 67.3609C40.7503 69.1384 40.3553 71.1135 40.3553 72.8911C40.3553 74.8662 40.5528 76.6437 41.1453 78.4213L30.2824 84.3466L19.4195 78.0263C16.0618 76.0512 11.9142 77.2363 10.1366 80.5939C8.16152 83.7541 9.34661 88.0992 12.7042 89.8768L16.8519 92.2469L3.61888 99.9497C0.261249 101.925 -0.726264 106.072 1.0513 109.233C2.23635 111.405 4.60644 112.59 6.97653 112.59C8.16157 112.59 9.34658 112.393 10.3341 111.603L23.5671 103.9V108.64C23.5671 112.393 26.5297 115.355 30.2824 115.355C34.035 115.355 37.1951 112.393 37.1951 108.64V95.9995L47.268 90.0743C50.0331 92.6419 53.3908 94.617 56.9459 95.802V107.455L46.083 113.775C42.7254 115.75 41.7378 119.898 43.5154 123.058C45.4905 126.416 49.6381 127.403 52.7982 125.626L56.9459 123.256V138.661C56.9459 142.414 59.9085 145.377 63.6611 145.377C67.4138 145.377 70.3764 142.414 70.3764 138.661V123.256L74.5241 125.626C75.5116 126.218 76.6967 126.613 77.8817 126.613C80.2518 126.613 82.6219 125.428 83.8069 123.256C85.782 120.096 84.5969 115.75 81.2393 113.973L70.3764 107.652V95.9995C74.129 94.8145 77.2892 93.0369 80.0543 90.2718L90.1271 95.9995V108.64C90.1271 112.393 93.0898 115.355 96.8424 115.355C100.595 115.355 103.558 112.393 103.558 108.64V104.097L116.791 111.8C117.778 112.393 118.963 112.788 120.148 112.788C122.518 112.788 124.888 111.603 126.074 109.43C128.444 106.072 127.259 101.925 124.098 99.9497ZM63.6611 83.359C57.9334 83.359 53.1933 78.6189 53.1933 72.8911C53.1933 67.1634 57.9334 62.4232 63.6611 62.4232C69.3889 62.4232 74.1291 67.1634 74.1291 72.8911C74.1291 78.8164 69.3889 83.359 63.6611 83.359Z" fill="url(#paint0_radial_12_3164)"/>
<defs>
<radialGradient id="paint0_radial_12_3164" cx="0" cy="0" r="1" gradientUnits="userSpaceOnUse" gradientTransform="translate(105.321 44.0411) scale(123.747 123.748)">
<stop stop-color="#28CBE9"/>
<stop offset="1" stop-color="#0A4FBB"/>
</radialGradient>
</defs>
</svg>
