<svg width="152" height="151" viewBox="0 0 152 151" fill="none" xmlns="http://www.w3.org/2000/svg">
<path d="M135.106 122.775L118.515 123.96L115.355 140.156L99.5545 135.613L91.0617 149.834L77.6312 139.959L64.7932 150.426L55.5104 136.601L39.9073 142.131L35.9571 125.935L19.3665 125.738L21.144 109.147L5.54096 103.42L12.8487 88.4089L0.405762 77.546L12.4537 66.0905L4.35591 51.6724L19.3665 44.9571L16.7989 28.564L33.3895 27.5764L36.5496 11.1833L52.3502 15.9235L60.8431 1.50537L74.2736 11.3808L87.1115 0.912842L96.3944 14.7384L111.997 9.20818L115.948 25.4038L132.538 25.6014L130.761 42.192L146.364 47.9198L139.056 62.9304L151.499 73.7933L139.649 85.2488L147.549 99.6669L132.538 106.382L135.106 122.775Z" fill="url(#paint0_linear_12_2868)"/>
<path d="M76.0514 131.663C106.921 131.663 131.946 106.638 131.946 75.7684C131.946 44.8986 106.921 19.8737 76.0514 19.8737C45.1816 19.8737 20.1567 44.8986 20.1567 75.7684C20.1567 106.638 45.1816 131.663 76.0514 131.663Z" fill="url(#paint1_radial_12_2868)"/>
<path d="M84.5437 69.8431C70.3231 58.1901 64.7929 40.6119 72.1007 30.539C79.4085 20.4661 96.9866 21.4536 111.405 33.1066C125.625 44.7596 131.155 62.3378 123.848 72.4107C116.342 82.6811 98.7642 81.4961 84.5437 69.8431Z" fill="url(#paint2_radial_12_2868)"/>
<path opacity="0.4" d="M26.4766 88.0138C28.4517 81.8911 37.932 84.4587 48.0049 93.7416C57.8803 103.024 64.5955 115.665 62.6205 121.985C60.6454 128.108 51.165 125.54 41.0922 116.257C31.2168 106.777 24.5015 94.3341 26.4766 88.0138Z" fill="url(#paint3_radial_12_2868)"/>
<defs>
<linearGradient id="paint0_linear_12_2868" x1="144.875" y1="-1.32887" x2="12.0352" y2="147.116" gradientUnits="userSpaceOnUse">
<stop stop-color="#FFBA24"/>
<stop offset="1" stop-color="#FF5500"/>
</linearGradient>
<radialGradient id="paint1_radial_12_2868" cx="0" cy="0" r="1" gradientUnits="userSpaceOnUse" gradientTransform="translate(88.7649 40.5812) rotate(180) scale(106.272 106.273)">
<stop stop-color="#FFF4C3"/>
<stop offset="0.1559" stop-color="#FFE036"/>
<stop offset="1" stop-color="#FA761C"/>
</radialGradient>
<radialGradient id="paint2_radial_12_2868" cx="0" cy="0" r="1" gradientUnits="userSpaceOnUse" gradientTransform="translate(97.8772 51.5159) rotate(126.034) scale(22.7571 33.1982)">
<stop stop-color="white"/>
<stop offset="1" stop-color="white" stop-opacity="0"/>
</radialGradient>
<radialGradient id="paint3_radial_12_2868" cx="0" cy="0" r="1" gradientUnits="userSpaceOnUse" gradientTransform="translate(44.5198 104.996) rotate(-136.79) scale(24.7463 10.5107)">
<stop stop-color="white"/>
<stop offset="1" stop-color="white" stop-opacity="0"/>
</radialGradient>
</defs>
</svg>
