<svg width="182" height="187" viewBox="0 0 182 187" fill="none" xmlns="http://www.w3.org/2000/svg">
<path d="M79.403 140.194H77.6253H70.7126L84.9331 112.543C85.5257 111.358 86.1182 109.975 86.3157 108.593C88.0933 100.1 82.7606 91.6072 74.0702 89.8297C65.5774 88.0521 57.0846 93.3848 55.307 102.075L45.8267 146.712L45.6292 148.095C45.4317 148.687 45.4316 149.477 45.4316 150.07C45.4316 155.402 49.7768 159.748 55.1095 159.748H65.5774L59.8497 183.448C59.6522 184.239 60.0472 185.226 60.6397 185.819C61.6273 186.609 63.0098 186.411 63.7998 185.424L86.3157 154.217C87.3033 152.835 87.8958 151.057 87.8958 149.082C88.0933 143.947 84.1431 140.194 79.403 140.194Z" fill="url(#paint0_linear_12_2954)"/>
<path d="M127.99 140.194H126.212H119.299L133.52 112.543C134.112 111.358 134.705 109.975 134.902 108.593C136.68 100.1 131.347 91.6072 122.657 89.8297C114.164 88.0521 105.671 93.3848 103.894 102.075L94.4133 146.712L94.0183 148.095C93.8208 148.687 93.8208 149.477 93.8208 150.07C93.8208 155.402 98.166 159.748 103.499 159.748H113.967L108.239 183.448C108.041 184.239 108.436 185.226 109.029 185.819C110.016 186.609 111.399 186.411 112.189 185.424L134.705 154.217C135.692 152.835 136.285 151.057 136.285 149.082C136.68 143.947 132.927 140.194 127.99 140.194Z" fill="url(#paint1_linear_12_2954)"/>
<path d="M143.988 50.5256C142.013 22.8744 118.904 0.95105 90.8583 0.95105C62.6148 0.95105 39.5064 22.8744 37.7288 50.5256C16.793 51.5131 0.00488281 68.8938 0.00488281 90.2247C0.00488281 112.148 17.7806 129.924 39.7039 129.924H142.21C164.134 129.924 181.909 112.148 181.909 90.2247C181.712 68.8938 164.924 51.5131 143.988 50.5256Z" fill="url(#paint2_radial_12_2954)"/>
<path opacity="0.6" d="M94.4137 55.4633C79.4031 43.4153 73.6755 24.8496 81.3783 14.1841C89.081 3.51868 107.647 4.70374 122.46 16.7517C137.47 28.7997 143.198 47.3655 135.495 58.0309C127.792 68.6963 109.424 67.5113 94.4137 55.4633Z" fill="url(#paint3_radial_12_2954)"/>
<path opacity="0.4" d="M144.185 91.2122C132.335 81.7318 127.792 67.1162 133.915 58.8209C140.038 50.5256 154.456 51.3156 166.306 60.9935C178.157 70.4739 182.699 85.0895 176.576 93.3848C170.454 101.68 156.036 100.89 144.185 91.2122Z" fill="url(#paint4_radial_12_2954)"/>
<path opacity="0.2" d="M28.2486 92.5948C19.5582 78.9667 9.48538 72.449 5.73273 77.9792C1.98009 83.5094 5.93024 98.915 14.6206 112.346C23.3109 125.974 33.3838 132.491 37.1364 126.961C40.8891 121.628 36.7414 106.223 28.2486 92.5948Z" fill="url(#paint5_radial_12_2954)"/>
<defs>
<linearGradient id="paint0_linear_12_2954" x1="53.1905" y1="184.379" x2="75.9518" y2="112.705" gradientUnits="userSpaceOnUse">
<stop offset="0.1559" stop-color="#FFE036"/>
<stop offset="1" stop-color="#FA761C"/>
</linearGradient>
<linearGradient id="paint1_linear_12_2954" x1="101.816" y1="184.379" x2="124.578" y2="112.704" gradientUnits="userSpaceOnUse">
<stop offset="0.1559" stop-color="#FFE036"/>
<stop offset="1" stop-color="#FA761C"/>
</linearGradient>
<radialGradient id="paint2_radial_12_2954" cx="0" cy="0" r="1" gradientUnits="userSpaceOnUse" gradientTransform="translate(113.644 27.9808) rotate(180) scale(138.76 101.365)">
<stop stop-color="#B6CCD2"/>
<stop offset="0.198" stop-color="#97B6BE"/>
<stop offset="1" stop-color="#5D87B4"/>
</radialGradient>
<radialGradient id="paint3_radial_12_2954" cx="0" cy="0" r="1" gradientUnits="userSpaceOnUse" gradientTransform="translate(108.491 36.068) rotate(126.034) scale(23.8818 34.839)">
<stop stop-color="white"/>
<stop offset="1" stop-color="white" stop-opacity="0"/>
</radialGradient>
<radialGradient id="paint4_radial_12_2954" cx="0" cy="0" r="1" gradientUnits="userSpaceOnUse" gradientTransform="translate(155.235 76.0827) rotate(126.034) scale(18.7688 27.3802)">
<stop stop-color="white"/>
<stop offset="1" stop-color="white" stop-opacity="0"/>
</radialGradient>
<radialGradient id="paint5_radial_12_2954" cx="0" cy="0" r="1" gradientUnits="userSpaceOnUse" gradientTransform="translate(21.3359 102.521) rotate(-25.7093) scale(9.62051 28.0062)">
<stop stop-color="white"/>
<stop offset="1" stop-color="white" stop-opacity="0"/>
</radialGradient>
</defs>
</svg>
